<?xml version="1.0" encoding="utf-8"?><!-- Uploaded to: SVG Repo, www.svgrepo.com, Generator: SVG Repo Mixer Tools -->
<svg width="800px" height="800px" viewBox="0 0 24 24" fill="none" xmlns="http://www.w3.org/2000/svg">
<path fill-rule="evenodd" clip-rule="evenodd" d="M4.08063 1C2.40362 1 1.47127 2.93986 2.51889 4.24939L11 14.8508V21H6C5.44772 21 5 21.4477 5 22C5 22.5523 5.44772 23 6 23H18C18.5523 23 19 22.5523 19 22C19 21.4477 18.5523 21 18 21H13V14.8508L21.4811 4.24939C22.5287 2.93986 21.5964 1 19.9194 1H4.08063ZM7.28063 7L4.08063 3H19.9194L16.7194 7H7.28063ZM8.88063 9L12 12.8992L15.1194 9L8.88063 9Z" fill="#0F0F0F"/>
</svg>